<svg width="298.496" height="110.649" viewBox="0 0 298.496 110.649" xmlns="http://www.w3.org/2000/svg"><g id="svgGroup" stroke-linecap="round" fill-rule="evenodd" font-size="9pt" stroke="#ffffff" stroke-width="0.25mm" fill="#ffffff" style="stroke:#ffffff;stroke-width:0.25mm;fill:#ffffff"><path d="M 287.446 106.865 L 267.314 109.59 L 268.223 89.155 Q 265.499 95.669 261.709 99.589 A 21.366 21.366 0 0 1 259.519 101.567 A 46.611 46.611 0 0 1 255.363 104.488 Q 253.18 105.841 251.098 106.734 A 25.09 25.09 0 0 1 249.604 107.319 Q 244.004 109.287 237.949 109.136 A 63.077 63.077 0 0 1 223.191 105.854 A 69.999 69.999 0 0 1 222.207 105.503 A 38.346 38.346 0 0 1 208.281 96.648 A 35.57 35.57 0 0 1 201.807 87.785 A 46.866 46.866 0 0 1 198.972 81.133 Q 195.994 72.405 196.756 59.873 A 94.09 94.09 0 0 1 196.929 57.52 A 78.735 78.735 0 0 1 199.241 44.524 A 59.739 59.739 0 0 1 203.665 32.922 A 61.086 61.086 0 0 1 211.416 21.162 A 52.473 52.473 0 0 1 217.061 15.439 Q 225.083 8.477 235.149 4.919 A 67.426 67.426 0 0 1 255.811 1.06 A 49.257 49.257 0 0 1 256.58 1.054 Q 265.749 1.054 271.78 4.541 A 38.693 38.693 0 0 1 278.104 9.059 A 31.765 31.765 0 0 1 281.997 13.169 A 47.862 47.862 0 0 1 285.85 18.812 A 38.445 38.445 0 0 1 288.052 23.235 Q 289.674 27.117 290.764 29.713 A 1710.329 1710.329 0 0 0 291.382 31.182 Q 291.685 31.938 292.593 33.149 Q 293.35 34.209 294.788 35.647 Q 295.776 36.636 297.158 37.803 A 65.015 65.015 0 0 0 298.496 38.901 Q 294.464 39.031 291.214 39.106 A 523.531 523.531 0 0 1 290.171 39.128 A 228.125 228.125 0 0 0 287.595 39.196 Q 286.584 39.228 285.677 39.268 A 116.041 116.041 0 0 0 283.965 39.355 A 447.753 447.753 0 0 0 281.402 39.497 Q 280.197 39.568 279.123 39.638 A 263.989 263.989 0 0 0 278.818 39.658 A 152.423 152.423 0 0 0 277.617 39.743 Q 275.719 39.885 273.228 40.111 A 265.824 265.824 0 0 0 273.218 40.112 Q 271.136 40.32 268.411 40.529 A 355.924 355.924 0 0 1 265.801 40.718 Q 262.783 40.926 258.835 41.277 A 611.376 611.376 0 0 0 255.054 41.626 Q 258.838 37.085 261.033 33.528 A 58.696 58.696 0 0 0 262.53 30.966 Q 263.653 28.921 264.363 27.17 Q 265.232 25.026 265.569 23.282 A 12.432 12.432 0 0 0 265.725 22.251 A 13.426 13.426 0 0 0 265.79 21.394 Q 265.829 20.481 265.725 19.695 A 6.888 6.888 0 0 0 265.498 18.618 A 6.944 6.944 0 0 0 261.918 14.144 A 10.299 10.299 0 0 0 260.806 13.623 A 23.397 23.397 0 0 0 257.081 12.895 Q 249.575 12.077 243.526 16.885 A 24.105 24.105 0 0 0 241.809 18.391 A 30.314 30.314 0 0 0 236.385 25.632 Q 232.436 32.773 230.263 43.729 A 100.88 100.88 0 0 0 230.229 43.896 A 499.727 499.727 0 0 0 227.49 59.782 A 553.353 553.353 0 0 0 227.126 62.136 A 108.641 108.641 0 0 0 226.182 70.344 Q 225.939 73.604 225.939 76.63 A 71.18 71.18 0 0 0 225.991 79.392 A 39.388 39.388 0 0 0 226.522 84.614 Q 226.985 87.277 227.828 89.478 A 19.188 19.188 0 0 0 229.019 92.031 A 8.517 8.517 0 0 0 235.236 96.387 Q 236.357 96.59 237.633 96.59 A 16.958 16.958 0 0 0 238.403 96.572 A 42.336 42.336 0 0 0 243.367 96.064 Q 245.903 95.643 248.05 94.908 A 23.024 23.024 0 0 0 249.453 94.377 Q 253.404 92.731 255.98 90.512 A 16.635 16.635 0 0 0 256.719 89.836 A 17.214 17.214 0 0 0 259.15 86.916 A 13.911 13.911 0 0 0 260.579 84.084 Q 261.475 81.635 261.475 79.421 A 10.533 10.533 0 0 0 261.411 78.257 A 6.797 6.797 0 0 0 260.691 76.642 Q 259.864 75.261 258.283 73.763 A 21.982 21.982 0 0 0 258.232 73.716 A 22.258 22.258 0 0 0 256.592 72.34 Q 254.831 70.99 252.278 69.455 A 75.676 75.676 0 0 0 251.421 68.948 A 41.74 41.74 0 0 0 248.198 67.27 Q 244.231 65.4 238.403 63.423 A 1649.361 1649.361 0 0 1 242.24 63.21 Q 247.731 62.912 251.648 62.742 Q 255.952 62.555 258.765 62.316 A 75.629 75.629 0 0 0 259.897 62.212 A 1769.579 1769.579 0 0 1 261.61 62.07 Q 264.022 61.871 265.498 61.758 Q 266.889 61.642 269.255 61.526 A 282.296 282.296 0 0 1 270.796 61.455 A 94.817 94.817 0 0 1 272.418 61.389 Q 275.015 61.304 278.591 61.304 A 363.009 363.009 0 0 0 281.131 61.294 Q 284.907 61.268 289.907 61.167 A 1035.877 1035.877 0 0 0 290.625 61.152 A 46.506 46.506 0 0 0 288.752 63.132 Q 287.865 64.13 287.163 65.058 A 22.521 22.521 0 0 0 286.387 66.147 A 108.338 108.338 0 0 1 285.753 67.149 Q 285.365 67.756 285.024 68.267 Q 284.479 69.629 284.548 73.566 A 60.733 60.733 0 0 0 284.57 74.473 Q 284.57 77.486 284.925 82.673 A 316.825 316.825 0 0 0 285.176 86.052 A 246.006 246.006 0 0 0 285.545 90.22 Q 285.994 94.873 286.724 100.996 A 844.137 844.137 0 0 0 287.446 106.865 Z M 119.731 5.903 A 342.309 342.309 0 0 0 126.234 6.386 Q 129.783 6.613 132.927 6.729 A 186.848 186.848 0 0 0 135.701 6.812 Q 140.436 6.916 144.205 6.948 A 375.086 375.086 0 0 0 147.432 6.963 Q 153.032 6.963 157.119 6.66 A 1682.264 1682.264 0 0 0 159.399 6.414 Q 163.06 6.017 168.169 5.449 A 913.503 913.503 0 0 0 171.253 5.038 Q 175.497 4.465 181.124 3.671 A 2761.645 2761.645 0 0 0 183.003 3.406 A 781.907 781.907 0 0 0 190.368 2.324 Q 193.667 1.824 197.351 1.243 A 1586.182 1586.182 0 0 0 205.103 0 A 32.013 32.013 0 0 0 202.302 5.374 A 103.49 103.49 0 0 0 201.321 7.882 Q 200.812 9.238 200.41 10.444 A 139.111 139.111 0 0 0 199.202 15.097 A 125.646 125.646 0 0 0 199.048 15.742 A 319.419 319.419 0 0 0 198.811 17.265 Q 198.442 19.678 197.988 22.856 Q 197.383 26.489 196.55 32.014 Q 195.718 37.539 194.507 45.107 A 130.137 130.137 0 0 0 191.661 38.26 Q 188.574 31.426 185.451 27.085 A 38.157 38.157 0 0 0 185.349 26.943 A 72.635 72.635 0 0 0 182.53 23.295 Q 179.503 19.64 176.797 17.559 A 25.263 25.263 0 0 0 173.729 15.523 Q 172.02 14.572 170.38 14.08 A 12.51 12.51 0 0 0 168.169 13.623 A 25.197 25.197 0 0 0 164.079 13.936 Q 160.861 14.466 158.481 15.894 A 18.838 18.838 0 0 0 152.351 21.721 A 28.284 28.284 0 0 0 148.794 29.441 A 52.09 52.09 0 0 0 147.492 34.991 A 44.272 44.272 0 0 0 147.129 37.463 Q 146.739 40.78 146.572 43.427 A 72.881 72.881 0 0 0 146.523 44.275 A 142.496 142.496 0 0 1 146.452 45.555 Q 146.357 47.137 146.261 47.967 A 11.929 11.929 0 0 1 146.221 48.286 A 190.862 190.862 0 0 0 149.96 48.038 Q 151.42 47.925 152.718 47.798 A 91.919 91.919 0 0 0 155.151 47.529 Q 158.784 47.075 160.903 46.621 Q 163.42 46.029 164.923 45.437 A 13.784 13.784 0 0 0 164.99 45.41 A 36.429 36.429 0 0 0 168.396 43.338 A 41.786 41.786 0 0 0 169.531 42.534 A 42.472 42.472 0 0 0 171.556 40.869 A 57.856 57.856 0 0 0 173.694 38.901 A 20.233 20.233 0 0 0 176.461 35.558 A 24.65 24.65 0 0 0 177.554 33.755 A 719.922 719.922 0 0 1 177.114 36.366 Q 176.475 40.112 175.964 42.837 A 417.307 417.307 0 0 1 175.638 44.559 Q 175.17 47 174.829 48.589 Q 174.224 51.162 174.072 52.524 A 62.282 62.282 0 0 0 173.911 53.272 Q 173.736 54.111 173.52 55.232 A 223.172 223.172 0 0 0 173.315 56.309 A 108.779 108.779 0 0 0 173.079 57.444 Q 172.762 59.005 172.382 61.069 A 319.465 319.465 0 0 0 172.256 61.758 Q 171.665 65.007 170.93 69.843 A 505.167 505.167 0 0 0 170.894 70.083 A 32.714 32.714 0 0 0 169.275 67.519 Q 168.415 66.293 167.523 65.305 A 18.686 18.686 0 0 0 167.109 64.861 A 37.985 37.985 0 0 0 165.676 63.445 Q 164.952 62.769 164.274 62.22 A 19.373 19.373 0 0 0 163.477 61.606 A 24.008 24.008 0 0 0 161.547 60.396 A 17.873 17.873 0 0 0 159.692 59.487 A 108.308 108.308 0 0 0 157.114 58.73 A 131.885 131.885 0 0 0 155.454 58.276 Q 153.486 57.822 150.837 57.292 A 111.002 111.002 0 0 0 147.378 56.66 A 133.753 133.753 0 0 0 145.161 56.309 Q 145.464 64.482 146.069 70.31 A 1348.022 1348.022 0 0 0 146.363 73.106 Q 146.782 77.058 147.118 79.979 A 484.228 484.228 0 0 0 147.129 80.073 Q 147.734 84.614 148.34 87.642 A 29.644 29.644 0 0 0 149.324 90.782 Q 149.91 92.359 150.71 94.042 A 47.575 47.575 0 0 0 150.762 94.15 A 39.527 39.527 0 0 0 152.056 96.748 Q 152.733 97.996 153.566 99.36 A 76.588 76.588 0 0 0 154.622 101.038 A 55.278 55.278 0 0 0 157.279 104.773 Q 158.543 106.409 160.035 108.13 A 92.587 92.587 0 0 0 161.055 109.287 A 41.235 41.235 0 0 0 155.525 108.31 A 45.952 45.952 0 0 0 154.697 108.228 Q 151.367 107.925 148.794 107.773 A 65.26 65.26 0 0 0 145.691 107.698 A 56.175 56.175 0 0 0 142.739 107.773 A 78.436 78.436 0 0 0 139.561 108 A 104.088 104.088 0 0 0 136.079 108.379 Q 133.052 108.682 129.116 109.287 A 429.588 429.588 0 0 0 125.067 109.93 A 508.237 508.237 0 0 0 120.791 110.649 A 35.845 35.845 0 0 0 123.269 107.915 A 27.675 27.675 0 0 0 125.029 105.503 Q 126.694 102.93 127.451 100.962 A 20.773 20.773 0 0 0 128.316 98.319 A 17.026 17.026 0 0 0 128.662 96.572 Q 128.813 94.756 128.813 88.625 A 598.971 598.971 0 0 0 128.792 83.73 Q 128.774 81.566 128.742 79.195 A 1070.043 1070.043 0 0 0 128.662 74.246 A 1115.629 1115.629 0 0 0 128.473 65.75 A 1321.641 1321.641 0 0 0 128.208 56.763 A 4177.539 4177.539 0 0 0 127.905 47.813 A 3432.707 3432.707 0 0 0 127.603 39.431 Q 127.394 33.864 127.151 29.405 A 347.788 347.788 0 0 0 126.921 25.581 A 141.196 141.196 0 0 0 126.777 23.584 Q 126.458 19.602 126.089 18.618 Q 125.483 17.104 124.727 15.137 Q 123.807 12.722 121.401 8.646 A 126.99 126.99 0 0 0 119.731 5.903 Z M 88.701 78.862 L 48.892 82.949 Q 47.378 85.522 46.621 87.415 Q 46.057 88.825 45.745 89.941 A 13.985 13.985 0 0 0 45.562 90.669 Q 45.107 92.334 45.259 93.394 A 11.995 11.995 0 0 0 45.55 94.366 Q 45.845 95.229 46.318 96.27 Q 47.075 97.783 48.513 99.827 A 20.97 20.97 0 0 0 49.672 101.312 Q 50.94 102.807 52.827 104.595 Q 49.043 104.443 45.107 104.443 Q 41.172 104.443 37.842 104.595 Q 33.906 104.746 30.122 104.897 A 314.832 314.832 0 0 0 26.608 105.059 Q 24.816 105.151 22.835 105.269 A 529.049 529.049 0 0 0 21.494 105.352 Q 17.407 105.654 11.882 106.033 A 404.516 404.516 0 0 0 6.149 106.468 A 500.839 500.839 0 0 0 0 107.017 Q 3.382 105.456 5.87 103.839 A 31.045 31.045 0 0 0 6.66 103.308 A 57.004 57.004 0 0 0 8.576 101.921 Q 9.507 101.215 10.3 100.544 A 30.54 30.54 0 0 0 11.201 99.751 A 48.004 48.004 0 0 0 13.141 98 Q 14.051 97.129 14.81 96.296 A 29.119 29.119 0 0 0 14.834 96.27 A 24.336 24.336 0 0 0 15.399 95.415 Q 16.31 93.985 17.979 91.12 A 405.487 405.487 0 0 0 19.072 89.231 Q 21.258 85.433 23.836 80.668 A 586.207 586.207 0 0 0 26.262 76.138 A 1705.583 1705.583 0 0 0 30.387 68.304 A 2059.833 2059.833 0 0 0 34.739 59.941 A 595.555 595.555 0 0 0 38.996 51.559 A 484.34 484.34 0 0 0 42.837 43.669 A 343.225 343.225 0 0 0 45.37 38.224 Q 46.589 35.537 47.601 33.162 A 169.212 169.212 0 0 0 48.74 30.425 A 93.864 93.864 0 0 0 49.512 28.463 Q 50.665 25.424 50.931 23.922 A 4.492 4.492 0 0 0 51.011 23.159 A 11.662 11.662 0 0 0 50.575 21.359 Q 50.291 20.48 49.859 19.527 A 22.4 22.4 0 0 0 49.497 18.77 Q 48.727 17.23 47.358 15.371 A 42.127 42.127 0 0 0 46.243 13.926 A 28.841 28.841 0 0 0 44.376 11.843 Q 43.347 10.794 42.079 9.669 A 65.965 65.965 0 0 0 39.961 7.871 Q 45.164 8.183 49.258 8.388 A 535.846 535.846 0 0 0 52.751 8.552 L 61.455 8.931 A 107.609 107.609 0 0 0 63.347 8.987 Q 65.164 9.025 66.677 8.987 A 47.273 47.273 0 0 0 68.115 8.931 A 59.674 59.674 0 0 0 70.01 8.792 Q 72.306 8.59 75.532 8.174 A 179.773 179.773 0 0 0 77.666 7.914 Q 81.114 7.474 86.052 6.736 A 550.976 550.976 0 0 0 89.548 6.201 Q 95.096 5.336 102.476 4.087 A 62.614 62.614 0 0 0 100.111 6.577 Q 98.292 8.608 97.102 10.369 Q 95.74 12.384 94.81 13.968 A 36.23 36.23 0 0 0 94.15 15.137 Q 93.356 16.726 92.887 17.989 A 14.661 14.661 0 0 0 92.485 19.224 A 3.466 3.466 0 0 0 92.434 19.601 Q 92.29 21.278 92.995 26.14 A 134.258 134.258 0 0 0 93.091 26.792 Q 93.715 30.955 94.697 36.155 A 403.748 403.748 0 0 0 95.664 41.096 Q 97.329 49.346 99.297 58.655 A 657.432 657.432 0 0 0 101.265 67.661 A 538.993 538.993 0 0 0 103.232 76.062 A 573.849 573.849 0 0 0 104.655 81.795 Q 105.226 84.042 105.759 86.052 A 290.224 290.224 0 0 0 106.79 89.836 Q 108.357 95.436 109.115 96.543 A 1.804 1.804 0 0 0 109.136 96.572 A 302.449 302.449 0 0 1 110.049 97.858 Q 111.539 99.966 112.012 100.735 Q 112.617 101.719 114.131 102.476 Q 114.736 102.778 116.099 103.384 A 45.577 45.577 0 0 0 116.756 103.705 Q 117.671 104.144 118.931 104.709 A 152.746 152.746 0 0 0 119.353 104.897 A 65.428 65.428 0 0 0 120.446 105.37 Q 122.191 106.108 124.575 107.017 A 419.023 419.023 0 0 1 120.382 107.212 Q 117.083 107.348 114.434 107.395 Q 110.642 107.463 108.062 107.591 A 101.725 101.725 0 0 0 107.471 107.622 A 397.315 397.315 0 0 0 105.214 107.736 Q 104.327 107.783 103.529 107.83 A 205.286 205.286 0 0 0 102.021 107.925 Q 100.283 107.925 98.012 108.102 A 85.31 85.31 0 0 0 96.572 108.228 Q 93.848 108.53 89.534 108.833 Q 86.568 109.041 82.922 109.249 A 778.966 778.966 0 0 1 79.468 109.438 A 66.88 66.88 0 0 0 81.579 107.902 Q 82.569 107.149 83.396 106.451 A 31.395 31.395 0 0 0 84.387 105.579 Q 86.279 103.838 87.339 102.627 Q 88.55 101.113 89.004 99.902 A 12.692 12.692 0 0 0 89.162 99.028 Q 89.349 97.774 89.458 95.815 Q 89.599 93.564 89.478 89.939 A 127.361 127.361 0 0 0 89.458 89.382 Q 89.307 85.371 88.701 78.862 Z M 55.4 70.386 L 86.885 67.661 A 527.391 527.391 0 0 0 86.225 63.89 Q 85.693 60.916 85.22 58.503 A 549.265 549.265 0 0 1 84.86 56.654 Q 84.366 54.086 84.031 52.195 A 186.796 186.796 0 0 1 84.009 52.07 Q 83.403 49.043 83.101 46.772 A 108.779 108.779 0 0 1 82.864 45.637 Q 82.547 44.076 82.167 42.012 A 319.465 319.465 0 0 1 82.041 41.323 A 279.049 279.049 0 0 1 81.724 39.795 Q 81.227 37.369 80.603 34.133 A 1151.447 1151.447 0 0 0 79.925 30.653 Q 79.621 29.101 79.279 27.379 A 2235.534 2235.534 0 0 0 78.56 23.765 A 18462.003 18462.003 0 0 1 74.487 31.905 Q 70.536 39.798 67.611 45.618 A 4787.727 4787.727 0 0 1 65.164 50.481 Q 60.574 59.588 58.438 63.996 A 280.195 280.195 0 0 0 58.276 64.331 A 382.281 382.281 0 0 0 57.391 66.112 Q 55.881 69.172 55.494 70.136 A 4.578 4.578 0 0 0 55.4 70.386 Z" vector-effect="non-scaling-stroke"/></g></svg>